<svg xmlns="http://www.w3.org/2000/svg" xmlns:xlink="http://www.w3.org/1999/xlink" width="201" height="210" viewBox="0 0 201 210"><defs><clipPath id="a"><rect width="121" height="105" transform="translate(692 927)" fill="#fff"/></clipPath><linearGradient id="b" x1="0.5" x2="0.5" y2="1" gradientUnits="objectBoundingBox"><stop offset="0" stop-color="#ffe3e3" stop-opacity="0.329"/><stop offset="1" stop-color="#fff8f3"/></linearGradient><clipPath id="c"><rect width="74" height="79" transform="translate(819 1057)" fill="#fff"/></clipPath><clipPath id="e"><rect width="176" height="137" transform="translate(701 978.51)" fill="#fff"/></clipPath><clipPath id="g"><rect width="129" height="57" transform="translate(819 1057)" fill="#fff"/></clipPath></defs><g transform="translate(-692 -927)"><g clip-path="url(#a)"><path d="M113.855,28.321q-.69,0-1.376.012A48.43,48.43,0,0,1,81.235,17.222a45.133,45.133,0,0,0-28.8-10.077c-24.9.163-45.43,21.189-45.018,46.091a45.107,45.107,0,0,0,4.4,18.75,29.006,29.006,0,0,1-2.806,29.852A45.331,45.331,0,1,0,88.186,143.7a45.774,45.774,0,0,0,1.476-5.334,24.314,24.314,0,0,1,23.874-19.394h.319c32.112,0,58.144-20.293,58.144-45.326s-26.032-45.327-58.144-45.327Z" transform="translate(641 853.656)" opacity="0.27" fill="url(#b)"/></g><g clip-path="url(#c)"><path d="M113.855,28.321q-.69,0-1.376.012A48.43,48.43,0,0,1,81.235,17.222a45.133,45.133,0,0,0-28.8-10.077c-24.9.163-45.43,21.189-45.018,46.091a45.107,45.107,0,0,0,4.4,18.75,29.006,29.006,0,0,1-2.806,29.852A45.331,45.331,0,1,0,88.186,143.7a45.774,45.774,0,0,0,1.476-5.334,24.314,24.314,0,0,1,23.874-19.394h.319c32.112,0,58.144-20.293,58.144-45.326s-26.032-45.327-58.144-45.327Z" transform="translate(827 1053.656)" opacity="0.27" fill="url(#b)"/></g><g transform="translate(-9 -51.51)" clip-path="url(#e)"><path d="M174.076,45.17q-1.055,0-2.1.022c-17.428.372-34.223-7.07-47.771-19.951-12.013-11.422-27.343-18.223-44.03-18.1-38.077.292-69.459,38.047-68.829,82.761a92.787,92.787,0,0,0,6.726,33.667c7.089,17.42,5.56,38.144-4.29,53.6a86.7,86.7,0,0,0-9.79,21.477C-8.762,240.732,10.075,287.5,45.876,302.57c36.458,15.342,76.439-7.336,88.954-50.221a93.689,93.689,0,0,0,2.256-9.578c3.679-20.346,18.791-34.912,36.5-34.825h.488c49.1,0,88.9-36.439,88.9-81.389s-39.8-81.389-88.9-81.389Z" transform="translate(614.025 800.957)" opacity="0.27" fill="url(#b)"/></g><g transform="translate(-55 23)" clip-path="url(#g)"><path d="M204.632,38.132q-1.24,0-2.473.018A100.005,100.005,0,0,1,146,21.891C131.881,12.583,113.86,7.041,94.245,7.146c-44.761.238-81.651,31-80.911,67.442a56.179,56.179,0,0,0,7.907,27.436c8.333,14.2,6.536,31.084-5.043,43.681a63.425,63.425,0,0,0-11.509,17.5c-14.989,34.29,7.154,72.405,49.239,84.682,42.857,12.5,89.856-5.978,104.568-40.926a57.535,57.535,0,0,0,2.652-7.805c4.324-16.58,22.09-28.45,42.909-28.379h.574c57.715,0,104.5-29.694,104.5-66.324s-46.788-66.325-104.5-66.325Z" transform="translate(833.379 1055.416)" opacity="0.27" fill="url(#b)"/></g></g></svg>