<svg xmlns="http://www.w3.org/2000/svg" xmlns:xlink="http://www.w3.org/1999/xlink" width="203" height="210" viewBox="0 0 203 210"><defs><clipPath id="a"><rect width="93" height="72" transform="translate(913 1064)" fill="#fff"/></clipPath><linearGradient id="b" x1="0.5" x2="0.5" y2="1" gradientUnits="objectBoundingBox"><stop offset="0" stop-color="#ffe3e3" stop-opacity="0.329"/><stop offset="1" stop-color="#fff8f3"/></linearGradient><clipPath id="c"><rect width="82" height="97" transform="translate(1034 927)" fill="#fff"/></clipPath><clipPath id="e"><rect width="50" height="137" transform="translate(1034 927)" fill="#fff"/></clipPath><clipPath id="g"><rect width="121" height="51" transform="translate(913 1064)" fill="#fff"/></clipPath></defs><g transform="translate(-913 -927)"><g clip-path="url(#a)"><path d="M113.855,28.321q-.69,0-1.376.012A48.43,48.43,0,0,1,81.235,17.222a45.133,45.133,0,0,0-28.8-10.077c-24.9.163-45.43,21.189-45.018,46.091a45.107,45.107,0,0,0,4.4,18.75,29.006,29.006,0,0,1-2.806,29.852A45.331,45.331,0,1,0,88.186,143.7a45.774,45.774,0,0,0,1.476-5.334,24.314,24.314,0,0,1,23.874-19.394h.319c32.112,0,58.144-20.293,58.144-45.326s-26.032-45.327-58.144-45.327Z" transform="translate(829 1049.856)" opacity="0.27" fill="url(#b)"/></g><g clip-path="url(#c)"><path d="M113.855,28.321q-.69,0-1.376.012A48.43,48.43,0,0,1,81.235,17.222a45.133,45.133,0,0,0-28.8-10.077c-24.9.163-45.43,21.189-45.018,46.091a45.107,45.107,0,0,0,4.4,18.75,29.006,29.006,0,0,1-2.806,29.852A45.331,45.331,0,1,0,88.186,143.7a45.774,45.774,0,0,0,1.476-5.334,24.314,24.314,0,0,1,23.874-19.394h.319c32.112,0,58.144-20.293,58.144-45.326s-26.032-45.327-58.144-45.327Z" transform="matrix(-0.574, -0.819, 0.819, -0.574, 1088.994, 1049.495)" opacity="0.27" fill="url(#b)"/></g><g transform="translate(32)" clip-path="url(#e)"><path d="M140.888,42.019q-.881-.134-1.754-.252c-14.513-1.974-29.34-8.808-42.043-18.672C85.827,14.347,72.292,8.1,58.372,6.07,26.608,1.429,4.477,21.331,9.828,49.691a61.673,61.673,0,0,0,9.25,22.146c7.8,11.916,8.759,24.83,2.2,33.358a32.89,32.89,0,0,0-5.858,12.343c-6.107,25,14.669,56.966,46.189,71.032,32.1,14.324,63.038,5.047,68.861-20.491a37.984,37.984,0,0,0,.851-5.772c.876-12.4,11.924-19.7,26.722-17.4l.408.063c41,6.222,70.3-11.781,65.451-40.21s-42.018-56.52-83.015-62.741Z" transform="matrix(-0.574, -0.819, 0.819, -0.574, 1093.279, 1084.851)" opacity="0.27" fill="url(#b)"/></g><g transform="translate(0 22)" clip-path="url(#g)"><path d="M148.134,28.321q-.9,0-1.79.012a75.552,75.552,0,0,1-40.651-11.111C95.47,10.861,82.424,7.074,68.224,7.145c-32.4.163-59.108,21.189-58.572,46.091a36.817,36.817,0,0,0,5.724,18.75c6.032,9.7,4.731,21.243-3.65,29.852A43.213,43.213,0,0,0,3.395,113.8c-10.851,23.434,5.179,49.482,35.644,57.873,31.025,8.544,65.047-4.086,75.7-27.969a37.828,37.828,0,0,0,1.92-5.334c3.13-11.331,15.991-19.443,31.062-19.394h.416c41.78,0,75.65-20.293,75.65-45.326s-33.87-45.327-75.65-45.327Z" transform="translate(803.71 1049.856)" opacity="0.27" fill="url(#b)"/></g></g></svg>